<?xml version="1.0" standalone="no"?>
<!DOCTYPE svg PUBLIC "-//W3C//DTD SVG 20010904//EN"
 "http://www.w3.org/TR/2001/REC-SVG-20010904/DTD/svg10.dtd">
<svg version="1.0" xmlns="http://www.w3.org/2000/svg"
 width="881.000000pt" height="481.000000pt" viewBox="0 0 881.000000 481.000000"
 preserveAspectRatio="xMidYMid meet">
<metadata>
Created by potrace 1.16, written by Peter Selinger 2001-2019
</metadata>
<g transform="translate(0.000000,481.000000) scale(0.100000,-0.100000)"
fill="#11110f" stroke="none">
<path d="M5125 4434 c-11 -3 -56 -12 -100 -20 -157 -30 -303 -91 -450 -189
-89 -60 -207 -164 -257 -228 -29 -37 -25 -35 37 22 364 331 869 411 1301 207
139 -66 238 -138 365 -265 242 -243 386 -529 455 -903 21 -114 29 -370 15
-496 -51 -467 -264 -882 -588 -1142 -310 -250 -730 -327 -1101 -203 -162 54
-326 153 -459 276 -42 39 -59 51 -45 31 11 -17 62 -69 111 -117 182 -173 387
-281 633 -333 100 -22 369 -25 468 -6 312 60 594 225 798 467 289 342 433 749
434 1220 0 323 -61 583 -201 859 -213 419 -527 684 -939 793 -83 22 -122 26
-277 29 -99 1 -189 1 -200 -2z"/>
<path d="M2965 3729 c-296 -38 -470 -174 -506 -397 -9 -55 -9 -89 0 -145 36
-224 201 -356 519 -413 l92 -17 -78 -26 c-42 -14 -109 -47 -149 -74 -140 -93
-236 -224 -360 -491 -127 -274 -170 -334 -265 -376 -27 -11 -48 -23 -48 -25 0
-1 84 -1 188 1 186 3 187 4 207 29 23 27 80 143 209 422 98 212 152 298 239
379 76 71 138 106 237 133 63 18 103 21 262 21 l188 0 0 30 0 30 -262 0 c-219
0 -278 3 -355 19 -114 24 -221 78 -268 136 -122 149 -133 393 -24 546 33 47
113 105 176 129 116 43 191 51 488 51 252 -1 281 -2 293 -18 16 -23 18 -1727
1 -1787 -14 -51 -56 -93 -102 -101 -80 -15 -27 -22 173 -21 115 1 210 2 210 4
0 2 -10 17 -22 33 l-23 31 -3 954 -2 954 -473 -1 c-259 -1 -503 -6 -542 -10z"/>
<path d="M4072 2781 c3 -957 3 -960 24 -988 l21 -28 156 0 c85 0 154 1 153 2
-1 2 -22 13 -47 26 -85 44 -79 -27 -77 992 l3 900 120 8 c71 6 209 5 340 -1
224 -10 286 -22 380 -69 87 -44 157 -130 190 -232 14 -42 16 -76 13 -160 -6
-128 -34 -200 -106 -274 -55 -57 -112 -88 -214 -118 -66 -20 -102 -22 -370
-26 l-298 -5 0 -29 0 -29 185 0 c210 0 260 -8 365 -57 57 -27 93 -54 150 -112
87 -89 129 -159 241 -403 119 -259 180 -378 209 -400 23 -18 37 -19 197 -16
95 2 173 5 173 8 0 4 -17 12 -37 19 -79 29 -131 100 -253 347 -161 327 -222
414 -356 510 -63 45 -191 104 -225 104 -11 0 -19 4 -19 9 0 4 31 11 69 14 239
20 432 130 511 291 28 56 34 80 38 159 13 251 -117 413 -393 489 -77 21 -100
22 -613 26 l-532 3 2 -960z"/>
<path d="M380 808 l25 -14 3 -202 c2 -202 2 -202 -20 -212 -17 -6 -1 -9 57 -8
44 0 71 2 60 5 -35 9 -40 22 -40 109 l-1 85 30 -3 c23 -2 41 -16 73 -58 89
-113 116 -136 163 -143 51 -7 77 7 31 16 -22 5 -48 28 -100 94 -39 48 -71 90
-71 94 0 3 15 12 33 21 35 17 67 68 67 108 0 35 -28 78 -63 97 -24 13 -62 18
-152 21 -104 3 -117 1 -95 -10z m224 -50 c25 -27 28 -36 23 -77 -7 -64 -40
-91 -113 -91 l-54 0 0 79 c0 44 5 92 10 106 10 26 13 27 58 21 35 -5 54 -15
76 -38z"/>
<path d="M6328 804 c21 -15 22 -20 22 -215 0 -198 0 -200 -22 -209 -17 -6 -3
-9 52 -9 55 0 69 3 53 9 -22 9 -23 15 -23 100 0 89 0 90 25 90 19 0 36 -14 68
-57 76 -103 117 -139 166 -147 27 -4 48 -3 55 4 7 7 2 10 -14 10 -14 0 -34 8
-46 18 -26 21 -134 158 -134 169 0 4 13 15 29 25 69 39 86 125 35 179 -37 38
-79 49 -194 49 -88 0 -93 -1 -72 -16z m200 -31 c31 -19 44 -59 37 -105 -9 -52
-44 -78 -105 -78 l-48 0 -7 74 c-7 75 -1 115 19 128 15 10 76 -1 104 -19z"/>
<path d="M939 721 c18 -18 19 -32 16 -168 -2 -81 -4 -152 -4 -156 -1 -4 -11
-12 -23 -17 -16 -6 22 -9 113 -9 136 -1 137 -1 143 23 3 13 9 32 12 43 5 15 3
15 -13 -3 -28 -33 -57 -44 -117 -44 l-56 0 0 75 0 75 55 0 c42 0 55 -3 55 -15
0 -8 5 -15 10 -15 6 0 10 20 10 45 0 25 -4 45 -10 45 -5 0 -10 -7 -10 -15 0
-12 -13 -15 -55 -15 l-56 0 3 72 3 72 60 -3 c48 -2 63 -7 77 -24 17 -22 18
-22 18 16 l0 37 -125 0 c-124 0 -125 0 -106 -19z"/>
<path d="M1403 726 c17 -14 18 -21 2 -163 -18 -172 -20 -180 -43 -186 -9 -3
10 -5 43 -5 47 -1 55 1 36 9 -21 8 -23 14 -18 52 4 23 9 77 13 120 3 43 10 75
14 70 4 -4 33 -57 65 -118 32 -60 62 -118 67 -128 7 -14 22 8 76 118 36 74 69
135 73 135 3 0 10 -53 13 -117 7 -106 6 -118 -10 -130 -15 -11 -8 -13 52 -12
51 0 63 3 47 9 -12 5 -25 19 -27 32 -11 51 -28 278 -24 302 4 20 1 26 -13 26
-13 0 -38 -40 -92 -146 l-74 -147 -75 144 c-72 140 -75 144 -109 147 -31 2
-32 1 -16 -12z"/>
<path d="M2038 728 c21 -11 22 -15 22 -175 0 -160 0 -164 -22 -173 -16 -6 22
-8 111 -7 l134 2 14 39 c15 45 10 61 -8 23 -15 -34 -54 -49 -120 -45 l-54 3 0
75 0 75 49 0 c35 -1 52 -6 62 -20 13 -17 14 -14 14 31 -1 38 -3 45 -11 32 -8
-14 -23 -18 -64 -18 l-55 0 0 70 0 70 70 0 c64 0 72 -2 80 -22 8 -20 9 -18 9
15 l1 37 -127 -1 c-100 0 -123 -3 -105 -11z"/>
<path d="M2532 721 c9 -15 9 -47 -1 -143 -17 -174 -20 -188 -45 -198 -15 -6
-5 -9 38 -9 52 -1 57 1 42 12 -17 12 -18 24 -11 130 4 64 10 117 14 117 3 0
37 -62 75 -137 l68 -137 64 129 c36 72 69 134 73 138 5 5 12 -31 15 -80 4 -48
10 -103 13 -120 4 -28 2 -34 -18 -42 -19 -8 -8 -10 46 -10 48 0 63 3 49 9 -22
9 -29 50 -50 288 -4 43 -11 72 -18 72 -6 0 -44 -66 -84 -146 -65 -130 -75
-145 -86 -128 -7 11 -41 76 -77 146 -59 117 -66 128 -92 128 -24 0 -26 -2 -15
-19z"/>
<path d="M3168 725 c21 -15 22 -22 22 -166 0 -136 -2 -151 -20 -169 l-20 -20
105 0 c146 0 185 22 185 103 0 27 -7 41 -31 61 -17 14 -37 26 -45 26 -21 0
-17 10 12 32 21 17 25 27 22 61 -5 63 -36 80 -156 85 -92 4 -96 3 -74 -13z
m169 -31 c7 -10 13 -32 13 -50 0 -39 -38 -74 -81 -74 -26 0 -29 4 -31 33 -4
84 -4 103 0 111 8 14 85 -1 99 -20z m-8 -149 c59 -13 80 -79 40 -129 -18 -22
-28 -26 -75 -26 l-54 0 0 83 0 83 29 -2 c15 -1 42 -5 60 -9z"/>
<path d="M3628 720 c21 -20 22 -30 22 -165 0 -132 -2 -147 -20 -165 l-20 -20
60 0 60 0 -20 20 c-17 17 -20 31 -18 83 3 55 5 62 25 65 17 3 34 -13 78 -72
63 -85 78 -96 132 -95 37 1 37 1 11 11 -16 5 -51 41 -83 83 -59 79 -62 85 -42
85 7 0 25 13 40 28 36 38 37 90 2 124 -31 31 -63 38 -168 38 l-81 0 22 -20z
m151 -11 c54 -19 68 -75 30 -123 -17 -22 -28 -26 -70 -26 l-49 0 0 73 c0 41 3
77 7 80 10 10 46 8 82 -4z"/>
<path d="M4236 708 c-101 -237 -142 -317 -169 -328 -16 -6 -4 -9 43 -8 36 0
57 2 48 5 -22 6 -23 25 -2 80 l17 43 73 0 73 0 18 -56 c15 -48 15 -57 3 -65
-10 -6 9 -9 55 -8 53 0 64 3 47 9 -24 10 -45 51 -132 258 -24 56 -47 102 -52
102 -4 0 -14 -15 -22 -32z m42 -117 c12 -29 22 -58 22 -62 0 -5 -25 -9 -55 -9
-30 0 -55 2 -55 5 0 17 55 134 60 128 4 -5 16 -32 28 -62z"/>
<path d="M4618 728 c13 -13 17 -315 4 -334 -4 -6 -14 -14 -22 -17 -8 -3 12 -5
45 -6 46 0 55 2 38 9 -22 9 -23 14 -23 135 0 69 3 125 8 125 4 1 69 -63 144
-142 l138 -143 0 172 c0 164 1 173 22 193 l22 20 -60 -1 c-50 0 -55 -2 -36
-11 21 -11 22 -16 22 -137 l0 -126 -138 138 c-82 81 -145 137 -157 137 -15 0
-16 -3 -7 -12z"/>
<path d="M5260 729 c-31 -13 -78 -56 -95 -89 -46 -92 -12 -210 75 -255 62 -32
184 -28 233 7 10 7 20 31 23 53 l5 40 -18 -32 c-25 -44 -53 -62 -105 -69 -162
-21 -247 221 -109 313 67 45 179 23 206 -40 l14 -32 1 46 c0 45 -1 46 -39 57
-46 14 -156 15 -191 1z"/>
<path d="M5680 720 c18 -18 20 -33 20 -169 0 -144 -1 -151 -22 -165 -21 -15
-13 -16 109 -16 130 0 131 0 137 24 3 13 9 32 12 43 5 16 3 15 -13 -3 -30 -34
-58 -44 -117 -44 -54 0 -55 0 -61 33 -3 17 -4 52 -2 77 l5 44 48 -3 c28 -1 54
-8 60 -17 18 -23 24 -16 24 31 0 44 -12 60 -24 30 -4 -11 -21 -15 -62 -15
l-57 0 6 66 c2 36 7 68 11 71 8 8 70 11 102 5 15 -3 29 -13 31 -23 9 -31 23
-21 20 14 l-2 32 -123 3 -123 3 21 -21z"/>
<path d="M6868 724 c21 -15 22 -21 22 -167 0 -154 -3 -169 -30 -180 -8 -3 14
-6 50 -6 49 0 61 2 48 10 -16 9 -18 28 -18 173 0 159 1 163 23 174 18 9 10 11
-48 11 -66 1 -68 0 -47 -15z"/>
<path d="M7170 721 c5 -11 10 -85 10 -170 0 -144 -1 -151 -22 -165 -21 -15
-20 -16 37 -15 46 0 55 2 38 9 -22 9 -23 14 -23 135 0 69 1 125 3 125 2 0 67
-64 145 -142 l142 -143 0 177 c0 171 1 177 22 192 21 15 20 16 -37 16 -57 0
-58 -1 -37 -16 21 -14 22 -22 22 -142 l-1 -127 -139 143 c-77 78 -147 142
-155 142 -12 0 -13 -4 -5 -19z"/>
<path d="M7802 723 c-75 -37 -120 -125 -107 -212 9 -60 70 -124 135 -141 53
-14 146 -8 184 12 24 13 28 21 30 66 2 28 9 58 16 67 11 13 5 15 -51 14 -49 0
-59 -2 -41 -9 19 -8 22 -17 22 -65 0 -51 -2 -56 -27 -66 -38 -15 -110 -5 -141
18 -45 34 -65 70 -70 126 -5 68 10 115 48 152 24 23 41 30 88 33 72 5 116 -15
136 -61 l14 -32 1 43 c1 40 -1 44 -34 58 -46 19 -161 18 -203 -3z"/>
<path d="M8277 720 c-34 -27 -45 -81 -23 -115 9 -14 36 -37 59 -52 73 -47 97
-74 97 -109 0 -39 -29 -64 -75 -64 -39 0 -72 23 -89 63 l-14 32 -1 -43 c-1
-40 1 -44 36 -59 59 -24 130 -13 165 26 57 64 30 126 -85 193 -60 35 -76 67
-53 103 12 19 25 25 50 25 50 0 67 -9 82 -44 l13 -31 1 41 c0 49 -8 54 -84 54
-39 0 -61 -6 -79 -20z"/>
</g>
</svg>
