<?xml version="1.0" standalone="no"?>
<!DOCTYPE svg PUBLIC "-//W3C//DTD SVG 20010904//EN"
 "http://www.w3.org/TR/2001/REC-SVG-20010904/DTD/svg10.dtd">
<svg version="1.0" xmlns="http://www.w3.org/2000/svg"
 width="881.000000pt" height="1148.000000pt" viewBox="0 0 881.000000 1148.000000"
 preserveAspectRatio="xMidYMid meet">
<metadata>
Created by potrace 1.16, written by Peter Selinger 2001-2019
</metadata>
<g transform="translate(0.000000,1148.000000) scale(0.100000,-0.100000)"
fill="#11110f" stroke="none">
<path d="M5125 11104 c-11 -3 -56 -12 -100 -20 -157 -30 -303 -91 -450 -189
-89 -60 -207 -164 -257 -228 -29 -37 -25 -35 37 22 364 331 869 411 1301 207
139 -66 238 -138 365 -265 242 -243 386 -529 455 -903 21 -114 29 -370 15
-496 -51 -467 -264 -882 -588 -1142 -310 -250 -730 -327 -1101 -203 -162 54
-326 153 -459 276 -42 39 -59 51 -45 31 11 -17 62 -69 111 -117 182 -173 387
-281 633 -333 100 -22 369 -25 468 -6 312 60 594 225 798 467 289 342 433 749
434 1220 0 323 -61 583 -201 859 -213 419 -527 684 -939 793 -83 22 -122 26
-277 29 -99 1 -189 1 -200 -2z"/>
<path d="M2965 10399 c-296 -38 -470 -174 -506 -396 -9 -56 -9 -90 0 -145 36
-225 201 -357 519 -414 l92 -17 -78 -26 c-42 -14 -109 -47 -149 -74 -140 -93
-236 -224 -360 -491 -127 -274 -170 -334 -265 -376 -27 -11 -48 -23 -48 -25 0
-1 84 -1 188 1 186 3 187 4 207 29 23 27 80 143 209 422 98 212 152 298 239
379 76 71 138 106 237 133 63 18 103 21 262 21 l188 0 0 30 0 30 -262 0 c-219
0 -278 3 -355 19 -114 24 -221 78 -268 136 -122 149 -133 393 -24 546 33 47
113 105 176 129 116 43 191 51 488 51 252 -1 281 -2 293 -18 16 -23 18 -1727
1 -1787 -14 -51 -56 -93 -102 -101 -80 -15 -27 -22 173 -21 115 1 210 2 210 4
0 2 -10 17 -22 33 l-23 31 -3 954 -2 954 -473 -1 c-259 -1 -503 -6 -542 -10z"/>
<path d="M4072 9451 c3 -957 3 -960 24 -988 l21 -28 156 0 c85 0 154 1 153 2
-1 2 -22 13 -47 26 -85 44 -79 -27 -77 992 l3 900 120 8 c71 6 209 5 340 -1
224 -10 286 -22 380 -69 87 -44 157 -130 190 -232 14 -42 16 -76 13 -160 -6
-128 -34 -200 -106 -274 -55 -57 -112 -88 -214 -118 -66 -20 -102 -22 -370
-26 l-298 -5 0 -29 0 -29 185 0 c210 0 260 -8 365 -57 57 -27 93 -54 150 -112
87 -89 129 -159 241 -403 119 -259 180 -378 209 -400 23 -18 37 -19 197 -16
95 2 173 5 173 8 0 4 -17 12 -37 19 -79 29 -131 100 -253 347 -161 327 -222
414 -356 510 -63 45 -191 104 -225 104 -11 0 -19 4 -19 9 0 4 31 11 69 14 239
20 432 130 511 291 28 56 34 80 38 159 13 251 -117 413 -393 489 -77 21 -100
22 -613 26 l-532 3 2 -960z"/>
<path d="M380 7478 l25 -14 3 -202 c2 -202 2 -202 -20 -212 -17 -6 -1 -9 57
-8 44 0 71 2 60 5 -35 9 -40 22 -40 109 l-1 85 30 -3 c23 -2 41 -16 73 -58 89
-113 116 -136 163 -143 51 -7 77 7 31 16 -22 5 -48 28 -100 94 -39 48 -71 90
-71 94 0 3 15 12 33 21 35 17 67 68 67 108 0 35 -28 78 -63 97 -24 13 -62 18
-152 21 -104 3 -117 1 -95 -10z m224 -50 c25 -27 28 -36 23 -77 -7 -64 -40
-91 -113 -91 l-54 0 0 79 c0 44 5 92 10 106 10 26 13 27 58 21 35 -5 54 -15
76 -38z"/>
<path d="M6328 7474 c21 -15 22 -20 22 -215 0 -198 0 -200 -22 -209 -17 -6 -3
-9 52 -9 55 0 69 3 53 9 -22 9 -23 15 -23 100 0 89 0 90 25 90 19 0 36 -14 68
-57 76 -103 117 -139 166 -147 27 -4 48 -3 55 4 7 7 2 10 -14 10 -14 0 -34 8
-46 18 -26 21 -134 158 -134 169 0 4 13 15 29 25 69 39 86 125 35 179 -37 38
-79 49 -194 49 -88 0 -93 -1 -72 -16z m200 -31 c31 -19 44 -59 37 -105 -9 -52
-44 -78 -105 -78 l-48 0 -7 74 c-7 75 -1 115 19 128 15 10 76 -1 104 -19z"/>
<path d="M939 7391 c18 -18 19 -32 16 -168 -2 -81 -4 -152 -4 -156 -1 -4 -11
-12 -23 -17 -16 -6 22 -9 113 -9 136 -1 137 -1 143 23 3 13 9 32 12 43 5 15 3
15 -13 -3 -28 -33 -57 -44 -117 -44 l-56 0 0 75 0 75 55 0 c42 0 55 -3 55 -15
0 -8 5 -15 10 -15 6 0 10 20 10 45 0 25 -4 45 -10 45 -5 0 -10 -7 -10 -15 0
-12 -13 -15 -55 -15 l-56 0 3 72 3 72 60 -3 c48 -2 63 -7 77 -24 17 -22 18
-22 18 16 l0 37 -125 0 c-124 0 -125 0 -106 -19z"/>
<path d="M1403 7396 c17 -14 18 -21 2 -163 -18 -172 -20 -180 -43 -186 -9 -3
10 -5 43 -5 47 -1 55 1 36 9 -21 8 -23 14 -18 52 4 23 9 77 13 120 3 43 10 75
14 70 4 -4 33 -57 65 -118 32 -60 62 -118 67 -128 7 -14 22 8 76 118 36 74 69
135 73 135 3 0 10 -53 13 -117 7 -106 6 -118 -10 -130 -15 -11 -8 -13 52 -12
51 0 63 3 47 9 -12 5 -25 19 -27 32 -11 51 -28 278 -24 302 4 20 1 26 -13 26
-13 0 -38 -40 -92 -146 l-74 -147 -75 144 c-72 140 -75 144 -109 147 -31 2
-32 1 -16 -12z"/>
<path d="M2038 7398 c21 -11 22 -15 22 -175 0 -160 0 -164 -22 -173 -16 -6 22
-8 111 -7 l134 2 14 39 c15 45 10 61 -8 23 -15 -34 -54 -49 -120 -45 l-54 3 0
75 0 75 49 0 c35 -1 52 -6 62 -20 13 -17 14 -14 14 31 -1 38 -3 45 -11 32 -8
-14 -23 -18 -64 -18 l-55 0 0 70 0 70 70 0 c64 0 72 -2 80 -22 8 -20 9 -18 9
15 l1 37 -127 -1 c-100 0 -123 -3 -105 -11z"/>
<path d="M2532 7391 c9 -15 9 -47 -1 -143 -17 -174 -20 -188 -45 -198 -15 -6
-5 -9 38 -9 52 -1 57 1 42 12 -17 12 -18 24 -11 130 4 64 10 117 14 117 3 0
37 -62 75 -137 l68 -137 64 129 c36 72 69 134 73 138 5 5 12 -31 15 -80 4 -48
10 -103 13 -120 4 -28 2 -34 -18 -42 -19 -8 -8 -10 46 -10 48 0 63 3 49 9 -22
9 -29 50 -50 288 -4 43 -11 72 -18 72 -6 0 -44 -66 -84 -146 -65 -130 -75
-145 -86 -128 -7 11 -41 76 -77 146 -59 117 -66 128 -92 128 -24 0 -26 -2 -15
-19z"/>
<path d="M3168 7395 c21 -15 22 -22 22 -166 0 -136 -2 -151 -20 -169 l-20 -20
105 0 c146 0 185 22 185 103 0 27 -7 41 -31 61 -17 14 -37 26 -45 26 -21 0
-17 10 12 32 21 17 25 27 22 61 -5 63 -36 80 -156 85 -92 4 -96 3 -74 -13z
m169 -31 c7 -10 13 -32 13 -50 0 -39 -38 -74 -81 -74 -26 0 -29 4 -31 33 -4
84 -4 103 0 111 8 14 85 -1 99 -20z m-8 -149 c59 -13 80 -79 40 -129 -18 -22
-28 -26 -75 -26 l-54 0 0 83 0 83 29 -2 c15 -1 42 -5 60 -9z"/>
<path d="M3628 7390 c21 -20 22 -30 22 -165 0 -132 -2 -147 -20 -165 l-20 -20
60 0 60 0 -20 20 c-17 17 -20 31 -18 83 3 55 5 62 25 65 17 3 34 -13 78 -72
63 -85 78 -96 132 -95 37 1 37 1 11 11 -16 5 -51 41 -83 83 -59 79 -62 85 -42
85 7 0 25 13 40 28 36 38 37 90 2 124 -31 31 -63 38 -168 38 l-81 0 22 -20z
m151 -11 c54 -19 68 -75 30 -123 -17 -22 -28 -26 -70 -26 l-49 0 0 73 c0 41 3
77 7 80 10 10 46 8 82 -4z"/>
<path d="M4236 7378 c-101 -237 -142 -317 -169 -328 -16 -6 -4 -9 43 -8 36 0
57 2 48 5 -22 6 -23 25 -2 80 l17 43 73 0 73 0 18 -56 c15 -48 15 -57 3 -65
-10 -6 9 -9 55 -8 53 0 64 3 47 9 -24 10 -45 51 -132 258 -24 56 -47 102 -52
102 -4 0 -14 -15 -22 -32z m42 -117 c12 -29 22 -58 22 -62 0 -5 -25 -9 -55 -9
-30 0 -55 2 -55 5 0 17 55 134 60 128 4 -5 16 -32 28 -62z"/>
<path d="M4618 7398 c13 -13 17 -315 4 -334 -4 -6 -14 -14 -22 -17 -8 -3 12
-5 45 -6 46 0 55 2 38 9 -22 9 -23 14 -23 135 0 69 3 125 8 125 4 1 69 -63
144 -142 l138 -143 0 172 c0 164 1 173 22 193 l22 20 -60 -1 c-50 0 -55 -2
-36 -11 21 -11 22 -16 22 -137 l0 -126 -138 138 c-82 81 -145 137 -157 137
-15 0 -16 -3 -7 -12z"/>
<path d="M5260 7399 c-31 -13 -78 -56 -95 -89 -46 -92 -12 -210 75 -255 62
-32 184 -28 233 7 10 7 20 31 23 53 l5 40 -18 -32 c-25 -44 -53 -62 -105 -69
-162 -21 -247 221 -109 313 67 45 179 23 206 -40 l14 -32 1 46 c0 45 -1 46
-39 57 -46 14 -156 15 -191 1z"/>
<path d="M5680 7390 c18 -18 20 -33 20 -169 0 -144 -1 -151 -22 -165 -21 -15
-13 -16 109 -16 130 0 131 0 137 24 3 13 9 32 12 43 5 16 3 15 -13 -3 -30 -34
-58 -44 -117 -44 -54 0 -55 0 -61 33 -3 17 -4 52 -2 77 l5 44 48 -3 c28 -1 54
-8 60 -17 18 -23 24 -16 24 31 0 44 -12 60 -24 30 -4 -11 -21 -15 -62 -15
l-57 0 6 66 c2 36 7 68 11 71 8 8 70 11 102 5 15 -3 29 -13 31 -23 9 -31 23
-21 20 14 l-2 32 -123 3 -123 3 21 -21z"/>
<path d="M6868 7394 c21 -15 22 -21 22 -167 0 -154 -3 -169 -30 -180 -8 -3 14
-6 50 -6 49 0 61 2 48 10 -16 9 -18 28 -18 173 0 159 1 163 23 174 18 9 10 11
-48 11 -66 1 -68 0 -47 -15z"/>
<path d="M7170 7391 c5 -11 10 -85 10 -170 0 -144 -1 -151 -22 -165 -21 -15
-20 -16 37 -15 46 0 55 2 38 9 -22 9 -23 14 -23 135 0 69 1 125 3 125 2 0 67
-64 145 -142 l142 -143 0 177 c0 171 1 177 22 192 21 15 20 16 -37 16 -57 0
-58 -1 -37 -16 21 -14 22 -22 22 -142 l-1 -127 -139 143 c-77 78 -147 142
-155 142 -12 0 -13 -4 -5 -19z"/>
<path d="M7802 7393 c-75 -37 -120 -125 -107 -212 9 -60 70 -124 135 -141 53
-14 146 -8 184 12 24 13 28 21 30 66 2 28 9 58 16 67 11 13 5 15 -51 14 -49 0
-59 -2 -41 -9 19 -8 22 -17 22 -65 0 -51 -2 -56 -27 -66 -38 -15 -110 -5 -141
18 -45 34 -65 70 -70 126 -5 68 10 115 48 152 24 23 41 30 88 33 72 5 116 -15
136 -61 l14 -32 1 43 c1 40 -1 44 -34 58 -46 19 -161 18 -203 -3z"/>
<path d="M8277 7390 c-34 -27 -45 -81 -23 -115 9 -14 36 -37 59 -52 73 -47 97
-74 97 -109 0 -39 -29 -64 -75 -64 -39 0 -72 23 -89 63 l-14 32 -1 -43 c-1
-40 1 -44 36 -59 59 -24 130 -13 165 26 57 64 30 126 -85 193 -60 35 -76 67
-53 103 12 19 25 25 50 25 50 0 67 -9 82 -44 l13 -31 1 41 c0 49 -8 54 -84 54
-39 0 -61 -6 -79 -20z"/>
<path d="M4332 6586 c-34 -35 -62 -66 -62 -70 0 -3 28 -36 63 -72 l62 -65 68
68 67 69 -68 67 -68 67 -62 -64z"/>
<path d="M2450 6520 c-208 -5 -186 -6 190 -8 234 -1 662 -5 953 -8 482 -6 527
-5 527 10 0 15 -62 16 -717 14 -395 -1 -824 -5 -953 -8z"/>
<path d="M4672 6518 c5 -14 202 -16 1303 -8 540 3 572 4 320 10 -154 4 -583 8
-953 9 -544 1 -673 -1 -670 -11z"/>
<path d="M1409 5881 c-74 -24 -123 -59 -170 -121 -50 -66 -73 -144 -72 -240 2
-187 121 -321 311 -350 86 -14 189 5 266 49 52 30 53 32 64 94 7 36 12 77 11
93 -1 24 -3 22 -13 -16 -28 -99 -70 -146 -157 -175 -71 -24 -167 -16 -236 18
-137 70 -198 260 -142 442 52 169 230 241 402 162 58 -26 86 -58 108 -122 17
-51 22 -24 12 60 -8 57 -10 61 -46 79 -99 48 -238 59 -338 27z"/>
<path d="M2354 5776 c-187 -47 -285 -224 -227 -407 23 -73 106 -156 183 -184
70 -24 178 -26 245 -2 74 25 146 93 180 168 24 55 27 70 23 144 -3 66 -10 91
-31 127 -72 124 -232 190 -373 154z m197 -52 c174 -87 170 -419 -7 -505 -63
-30 -152 -30 -211 -1 -95 49 -152 167 -140 293 17 195 189 297 358 213z"/>
<path d="M4020 5770 c-91 -3 -156 -7 -144 -8 11 -1 28 -10 37 -20 15 -16 17
-49 17 -258 0 -131 -3 -249 -6 -262 -4 -14 -18 -25 -38 -31 -21 -6 30 -9 166
-10 l196 -1 21 62 c27 80 26 93 -2 43 -33 -59 -74 -76 -177 -73 l-85 3 -3 123
-3 122 79 0 c81 0 102 -9 102 -42 0 -10 5 -18 10 -18 6 0 10 32 10 75 0 43 -4
75 -10 75 -5 0 -10 -8 -10 -18 0 -33 -21 -42 -102 -42 l-78 0 0 125 0 125 94
0 c97 0 126 -11 126 -45 0 -8 5 -17 10 -20 6 -4 10 15 10 49 0 55 -1 56 -27
54 -16 -1 -102 -5 -193 -8z"/>
<path d="M4590 5499 c0 -301 0 -301 -45 -312 -11 -2 23 -5 75 -5 86 -1 92 0
60 11 l-35 12 -3 215 -2 215 142 -150 c78 -82 180 -188 225 -235 l83 -85 0
275 c0 296 3 313 53 323 12 2 -21 4 -73 4 -52 0 -85 -2 -73 -4 48 -9 53 -32
53 -253 l0 -205 -122 130 c-67 72 -171 180 -230 240 l-108 110 0 -286z"/>
<path d="M5575 5598 c-161 -380 -165 -389 -199 -404 -29 -12 -25 -13 59 -13
52 1 79 4 65 8 -35 10 -35 35 -2 116 l29 70 115 3 115 3 31 -82 c18 -44 29
-85 26 -91 -3 -5 -16 -13 -28 -18 -14 -6 15 -9 84 -9 98 0 103 1 73 14 -17 7
-39 27 -47 43 -25 49 -226 522 -226 532 0 37 -27 -13 -95 -172z m119 -65 c25
-62 46 -115 46 -118 0 -3 -45 -5 -100 -5 l-99 0 41 98 c22 53 44 108 49 121 5
13 11 22 13 20 2 -2 25 -54 50 -116z"/>
<path d="M6234 5763 c3 -10 7 -135 8 -279 3 -278 2 -288 -45 -297 -12 -2 21
-5 73 -5 86 -1 92 0 60 11 l-35 12 -3 212 -2 213 222 -231 223 -230 5 279 c5
295 7 306 53 315 12 2 -21 4 -73 4 -52 0 -85 -2 -72 -4 48 -9 53 -34 50 -250
l-3 -200 -224 233 c-123 129 -228 234 -233 234 -5 0 -7 -8 -4 -17z"/>
<path d="M7046 5755 c-3 -11 -5 -36 -5 -55 1 -35 1 -35 10 -8 13 34 53 48 140
48 l69 0 0 -265 0 -266 -32 -14 c-31 -13 -27 -14 72 -13 58 0 96 3 85 5 -11 3
-28 12 -37 21 -16 14 -18 40 -18 275 l0 259 89 -4 c93 -4 121 -16 121 -49 0
-11 5 -19 11 -19 7 0 9 9 5 23 -3 12 -6 36 -6 52 l0 30 -249 0 c-242 0 -250
-1 -255 -20z"/>
<path d="M2986 5759 c17 -5 37 -15 43 -23 7 -8 68 -137 136 -288 68 -150 128
-274 132 -275 4 -1 44 79 88 180 151 346 170 383 213 400 l37 16 -95 0 c-64 0
-88 -3 -74 -9 43 -17 48 -2 -106 -367 -38 -91 -60 -124 -60 -93 0 5 -38 99
-85 209 -47 110 -85 209 -85 219 0 11 10 24 23 30 17 8 -2 11 -88 10 -82 0
-102 -2 -79 -9z"/>
<path d="M7732 5248 c-7 -7 -12 -21 -12 -33 0 -12 5 -26 12 -33 7 -7 21 -12
33 -12 12 0 26 5 33 12 7 7 12 21 12 33 0 12 -5 26 -12 33 -7 7 -21 12 -33 12
-12 0 -26 -5 -33 -12z"/>
<path d="M1290 4583 l35 -18 0 -320 0 -320 -35 -17 -35 -17 115 0 c84 1 107 3
85 10 -50 15 -55 30 -55 181 l0 138 30 0 c54 0 81 -23 172 -148 110 -150 143
-175 237 -179 66 -3 66 -3 30 10 -66 25 -92 51 -224 221 -38 49 -65 91 -59 93
36 12 83 45 109 77 26 32 30 47 33 109 3 62 1 77 -20 107 -13 20 -45 46 -73
60 -46 23 -62 25 -215 28 -164 3 -165 3 -130 -15z m262 -23 c76 -21 121 -114
98 -200 -22 -83 -82 -120 -194 -120 l-56 0 0 159 c0 118 3 161 13 164 22 9
101 7 139 -3z"/>
<path d="M2921 4398 c-20 -181 -51 -421 -57 -451 -4 -19 -16 -32 -37 -42 -30
-13 -27 -13 58 -14 85 0 89 1 63 15 -20 10 -28 23 -28 42 0 54 34 372 40 372
3 0 55 -99 115 -221 97 -196 111 -218 119 -197 41 94 209 431 212 423 2 -5 13
-95 24 -199 22 -200 21 -208 -25 -226 -12 -6 23 -9 90 -9 103 1 108 2 78 15
-18 7 -36 22 -41 31 -11 20 -12 27 -48 333 -14 124 -29 228 -33 233 -7 7 -241
-464 -241 -484 0 -30 -28 19 -139 242 -68 137 -127 249 -130 249 -4 0 -13 -51
-20 -112z"/>
<path d="M4053 4503 c-111 -2 -183 -7 -183 -13 0 -6 8 -10 18 -10 40 0 42 -15
42 -280 0 -268 -1 -274 -45 -298 -15 -9 27 -11 171 -12 l191 0 22 59 c26 72
27 96 2 55 -10 -17 -30 -40 -45 -51 -29 -23 -122 -37 -185 -27 l-41 7 0 123 0
124 78 0 c85 0 97 -4 111 -40 8 -20 10 -8 10 55 0 63 -2 76 -11 60 -20 -37
-40 -45 -115 -45 l-73 0 0 125 0 125 98 0 c105 0 123 -8 135 -55 2 -11 5 8 6
43 0 34 0 61 -1 60 -2 -2 -85 -4 -185 -5z"/>
<path d="M4665 4468 c-3 -24 -12 -104 -21 -178 -24 -213 -43 -349 -50 -361 -3
-6 -20 -17 -38 -25 -29 -12 -25 -13 64 -13 74 0 89 3 68 10 -14 6 -29 16 -31
23 -5 13 15 237 31 346 l8 55 110 -222 c60 -122 111 -222 115 -222 3 -1 13 20
23 47 9 26 57 128 105 227 l87 180 22 -185 c28 -231 28 -226 -5 -244 -26 -14
-22 -15 77 -15 l105 0 -34 17 c-43 21 -43 20 -76 292 -14 118 -30 238 -34 265
l-8 50 -107 -220 c-59 -121 -115 -236 -123 -255 l-15 -35 -123 247 c-69 135
-129 249 -134 252 -5 4 -12 -12 -16 -36z"/>
<path d="M6709 4506 c-2 -3 -84 -6 -182 -7 -97 -2 -177 -6 -177 -11 0 -4 8 -8
18 -8 40 0 42 -14 42 -287 l0 -263 -32 -20 -33 -20 194 2 194 3 23 68 c24 71
19 90 -9 32 -25 -53 -61 -66 -170 -63 l-92 3 -3 123 -3 122 84 0 c87 0 107 -8
107 -44 0 -10 3 -16 7 -13 8 9 7 136 -1 144 -3 4 -6 -3 -6 -15 0 -31 -29 -42
-114 -42 l-76 0 0 125 0 125 98 0 c83 0 102 -3 115 -18 10 -10 17 -26 17 -35
0 -9 4 -17 9 -17 6 0 7 25 4 58 -6 60 -7 65 -14 58z"/>
<path d="M2130 4490 c0 -5 11 -10 24 -10 13 0 27 -7 30 -16 9 -22 7 -527 -2
-539 -4 -6 -18 -16 -32 -22 -20 -9 15 -12 171 -12 l195 -1 23 66 c26 75 23 91
-7 40 -33 -56 -58 -67 -162 -68 -70 -1 -94 2 -101 13 -5 8 -9 65 -9 127 l0
112 83 0 c86 0 107 -8 107 -42 0 -10 5 -18 10 -18 6 0 10 32 10 76 0 47 -4 73
-10 69 -5 -3 -10 -13 -10 -20 0 -25 -38 -36 -113 -33 l-72 3 -3 60 c-2 33 -1
88 3 123 l7 63 101 -3 102 -3 17 -35 17 -35 1 58 0 57 -190 0 c-120 0 -190 -4
-190 -10z"/>
<path d="M5610 4490 c0 -5 11 -10 25 -10 18 0 28 -7 35 -26 13 -33 13 -475 0
-508 -5 -14 -22 -32 -37 -41 -26 -14 -18 -15 137 -13 160 3 166 4 212 31 57
33 78 69 78 135 0 65 -30 110 -96 142 l-51 25 31 20 c17 11 39 37 50 58 38 80
-13 164 -112 186 -66 14 -272 15 -272 1z m254 -34 c18 -8 41 -24 50 -37 19
-27 21 -97 4 -133 -15 -34 -87 -68 -135 -64 l-38 3 -3 109 c-1 61 0 116 2 123
7 17 77 17 120 -1z m46 -275 c55 -25 83 -75 78 -138 -5 -59 -25 -88 -75 -109
-40 -17 -145 -18 -161 -2 -13 13 -18 259 -6 271 11 11 127 -4 164 -22z"/>
<path d="M7060 4491 c0 -6 9 -11 20 -11 37 0 40 -29 38 -297 l-3 -258 -35 -17
-35 -18 105 0 105 0 -32 20 -33 20 0 264 0 264 33 5 c41 8 109 -5 141 -26 48
-32 59 -135 21 -193 -21 -32 -55 -45 -122 -45 -29 -1 -53 -4 -53 -8 0 -4 15
-15 34 -24 36 -17 53 -36 138 -156 64 -90 115 -121 192 -120 49 1 50 1 21 11
-52 19 -82 46 -148 136 -36 48 -74 97 -85 109 l-21 21 46 24 c65 32 86 65 91
141 5 73 -13 104 -81 139 -36 18 -64 22 -189 26 -106 3 -148 1 -148 -7z"/>
<path d="M7849 3961 c-44 -35 1 -98 51 -71 20 11 26 45 12 66 -14 21 -41 23
-63 5z"/>
<path d="M1940 3242 l35 -17 0 -315 0 -315 -35 -17 c-35 -18 -34 -18 125 -18
173 0 222 9 273 46 115 87 75 272 -68 315 l-40 12 28 17 c125 76 101 253 -41
295 -34 10 -94 15 -181 15 l-131 0 35 -18z m259 -36 c41 -22 61 -64 61 -131 0
-49 -4 -60 -34 -92 -30 -33 -39 -37 -95 -41 -64 -5 -86 -22 -26 -22 140 0 218
-63 218 -176 0 -105 -58 -154 -181 -154 -69 0 -73 1 -82 26 -11 28 -14 456 -3
554 l6 62 52 -5 c29 -3 67 -13 84 -21z"/>
<path d="M3692 3166 c-106 -27 -195 -109 -222 -204 -14 -53 -12 -151 5 -209
20 -66 81 -135 153 -170 51 -25 68 -28 157 -28 83 0 109 4 152 23 72 33 92 58
104 132 9 60 6 93 -6 54 -4 -10 -14 -39 -23 -64 -34 -89 -156 -138 -278 -111
-75 17 -126 58 -160 128 -26 51 -29 69 -29 153 0 76 4 104 21 140 44 93 108
132 221 131 115 0 188 -43 218 -128 l14 -38 0 50 c-1 87 -8 98 -76 122 -79 28
-183 36 -251 19z"/>
<path d="M4584 3171 c-101 -25 -199 -111 -230 -204 -56 -167 23 -337 185 -398
76 -28 205 -24 271 8 146 72 212 231 164 393 -24 81 -108 161 -198 189 -69 21
-135 25 -192 12z m153 -36 c97 -29 173 -146 173 -268 0 -120 -59 -229 -144
-268 -57 -26 -148 -25 -203 2 -54 26 -107 88 -127 147 -23 67 -21 196 5 252
54 120 169 173 296 135z"/>
<path d="M5341 2923 c-45 -345 -40 -325 -81 -345 l-35 -18 90 0 c86 1 89 2 63
16 -16 8 -28 22 -28 32 1 36 39 374 43 378 2 3 53 -95 113 -216 59 -121 110
-220 114 -220 3 0 12 17 19 38 21 58 194 413 199 408 6 -7 41 -312 42 -368 0
-42 -3 -47 -27 -56 -22 -8 -5 -11 77 -11 97 0 103 1 73 14 -17 7 -34 23 -38
34 -4 12 -21 141 -40 287 -18 146 -35 268 -39 271 -3 3 -60 -105 -127 -240
-66 -136 -122 -247 -125 -247 -2 0 -60 113 -129 250 -69 138 -126 250 -128
250 -2 0 -18 -116 -36 -257z"/>
<path d="M2734 3159 c-2 -4 9 -9 25 -12 18 -4 31 -14 35 -29 8 -31 8 -492 0
-513 -4 -10 -21 -23 -38 -31 -27 -12 -8 -13 165 -14 l197 0 25 68 c14 37 22
69 20 72 -3 3 -8 -1 -10 -8 -10 -27 -59 -75 -90 -88 -33 -14 -148 -19 -177 -8
-13 5 -16 26 -16 130 l0 124 71 0 c79 0 109 -11 109 -40 0 -11 5 -20 10 -20 6
0 10 32 10 77 0 77 -3 83 -24 41 -10 -21 -20 -23 -94 -26 l-82 -3 0 126 0 125
89 0 c107 0 119 -4 137 -44 13 -31 13 -31 14 25 l0 56 -186 -1 c-102 -1 -188
-4 -190 -7z"/>
<path d="M6320 3158 c0 -5 8 -8 18 -8 40 0 42 -14 42 -284 0 -144 -4 -266 -8
-271 -4 -6 -18 -16 -32 -22 -20 -9 15 -12 171 -12 l195 -1 23 65 c13 36 21 68
19 70 -3 3 -16 -12 -29 -33 -34 -53 -79 -72 -169 -72 -46 0 -81 5 -88 12 -8 8
-12 52 -12 130 l0 118 74 0 c89 0 104 -5 119 -39 11 -25 11 -25 15 17 2 23 2
59 0 80 l-3 37 -15 -30 c-15 -29 -17 -30 -103 -33 l-87 -3 0 126 0 125 99 0
c102 0 131 -10 131 -46 0 -8 5 -14 10 -14 11 0 13 42 4 76 -6 21 -10 22 -190
20 -101 0 -184 -4 -184 -8z"/>
<path d="M7048 2639 c-32 -18 -13 -89 23 -89 44 0 64 53 33 84 -18 18 -32 20
-56 5z"/>
<path d="M4337 1982 l-67 -68 68 -67 67 -67 63 63 c34 35 62 68 62 73 0 5 -28
38 -63 72 l-63 62 -67 -68z"/>
<path d="M2235 1920 c-88 -3 302 -7 868 -8 679 -1 1027 1 1027 8 0 11 -1599
11 -1895 0z"/>
<path d="M4673 1918 c3 -10 34 -12 118 -11 63 1 521 3 1019 4 507 1 848 6 775
10 -71 3 -532 7 -1023 8 -711 1 -893 -2 -889 -11z"/>
<path d="M4495 1539 c-124 -18 -268 -80 -365 -157 -59 -47 -90 -85 -106 -133
-12 -33 -12 -45 0 -73 8 -18 20 -37 27 -41 9 -6 10 -3 4 11 -44 103 28 199
220 294 115 57 200 80 300 80 92 0 139 -14 183 -55 35 -31 37 -37 37 -92 -1
-83 -46 -163 -146 -257 -88 -83 -198 -145 -302 -172 -60 -15 -70 -15 -83 -2
-16 16 2 64 125 337 28 62 51 115 51 117 0 2 -6 4 -14 4 -12 0 -168 -333 -190
-407 -5 -15 -16 -23 -38 -25 -17 -2 -36 -11 -42 -21 -9 -15 -7 -22 12 -37 l24
-20 -57 -166 c-56 -165 -63 -209 -35 -209 10 0 14 8 12 23 -4 26 3 52 65 230
61 172 64 172 166 25 41 -60 93 -129 116 -155 49 -55 147 -108 200 -108 53 0
125 39 129 69 4 24 3 24 -27 -6 -57 -57 -145 -53 -226 11 -54 42 -87 81 -172
199 l-71 101 51 13 c240 61 478 285 480 452 2 127 -136 198 -328 170z m-285
-597 c0 -14 -11 -21 -26 -15 -8 3 -11 9 -8 14 7 11 34 12 34 1z"/>
<path d="M1973 1478 c-74 -72 -180 -209 -284 -368 -71 -109 -72 -109 -118
-116 -103 -14 -247 -46 -268 -60 -13 -8 -23 -21 -23 -29 0 -14 3 -14 24 0 13
9 39 20 57 26 40 12 233 49 237 45 1 -2 -20 -41 -46 -87 -27 -46 -75 -133
-107 -194 -60 -115 -94 -160 -102 -137 -7 19 -23 14 -23 -7 0 -21 22 -33 43
-25 23 8 49 50 151 239 53 99 103 188 110 197 10 14 39 20 136 28 67 6 124 9
127 6 2 -2 -11 -60 -31 -128 -76 -265 -95 -388 -67 -422 20 -23 34 -20 25 7
-20 58 3 190 73 425 l36 122 63 0 c81 0 84 18 5 22 l-59 3 68 208 c38 115 71
224 75 244 6 34 -6 63 -27 63 -5 0 -39 -28 -75 -62z m6 -219 c-39 -123 -74
-227 -78 -231 -6 -7 -242 -28 -249 -22 -7 4 168 260 231 339 83 103 161 176
165 154 1 -9 -29 -117 -69 -240z"/>
<path d="M6487 1492 c-58 -35 -157 -217 -232 -425 -24 -66 -36 -85 -79 -121
-70 -59 -93 -71 -112 -55 -11 9 -14 27 -12 63 4 67 -13 70 -83 12 -29 -24 -55
-44 -56 -42 -2 1 6 32 16 69 16 56 17 68 5 77 -10 9 -20 7 -42 -9 -31 -21 -86
-80 -114 -120 -31 -44 -27 -18 8 58 36 79 40 91 24 91 -5 0 -21 -22 -34 -49
-14 -27 -47 -68 -73 -91 -131 -115 -251 -135 -221 -36 8 24 21 36 58 52 77 35
106 104 44 104 -19 0 -39 -13 -66 -42 -21 -23 -38 -45 -38 -49 0 -13 -112 -89
-132 -89 -15 0 -18 8 -18 54 0 30 -4 58 -10 61 -14 8 -49 -12 -92 -53 -21 -20
-40 -34 -42 -31 -3 3 4 35 16 73 35 116 -10 114 -110 -4 -30 -36 -59 -66 -63
-68 -10 -4 34 98 58 134 11 18 13 28 5 36 -7 7 -20 -6 -42 -46 -55 -97 -195
-201 -262 -194 -61 6 -51 77 15 106 81 37 114 103 55 110 -49 6 -137 -109
-138 -179 -1 -95 121 -81 241 28 42 38 47 34 24 -20 -18 -44 -19 -77 -2 -77 6
0 30 28 52 61 41 60 141 167 149 158 3 -2 -4 -31 -15 -63 -34 -104 -19 -130
39 -71 20 20 49 46 65 57 l27 19 0 -43 c0 -75 34 -87 106 -39 l43 30 3 -42 c6
-86 84 -85 201 3 36 27 68 50 70 50 2 0 -4 -24 -13 -52 -17 -52 -17 -68 0 -68
4 0 33 35 63 78 59 83 123 150 133 139 4 -4 -2 -37 -13 -74 -30 -99 -17 -105
65 -35 l67 56 3 -34 c4 -59 11 -78 30 -83 20 -4 64 15 110 50 17 13 32 22 32
19 0 -3 -7 -31 -15 -63 -16 -63 -20 -113 -7 -113 5 0 19 30 32 68 13 37 36 86
51 108 53 78 159 135 159 85 0 -48 -22 -80 -77 -111 -31 -17 -66 -42 -79 -55
-43 -43 -23 -86 29 -66 30 12 82 63 112 111 22 35 27 38 126 66 14 4 14 -2 5
-46 -9 -46 -8 -52 12 -72 42 -42 105 -25 205 57 32 25 57 44 57 42 0 -3 -7
-24 -15 -47 -17 -49 -20 -90 -5 -90 5 0 22 24 36 53 15 28 42 77 62 107 34 53
35 54 51 34 25 -32 55 -44 104 -44 l44 0 -10 -39 c-14 -50 1 -86 38 -95 32 -8
117 28 175 74 l38 30 -5 -39 c-5 -37 -3 -41 21 -47 32 -8 62 11 130 80 27 28
46 43 43 33 -34 -92 -57 -288 -37 -312 22 -26 26 -17 22 43 -4 61 16 182 50
291 13 43 46 103 103 186 77 112 155 253 155 281 0 24 -27 36 -50 22 -44 -27
-155 -236 -204 -385 -17 -51 -17 -52 -37 -32 -10 10 -23 19 -28 19 -28 0 -72
-28 -126 -80 -83 -79 -179 -140 -222 -140 -39 0 -48 15 -39 64 5 28 12 35 45
45 43 12 94 64 89 90 -2 9 -15 17 -31 19 -23 3 -37 -5 -72 -43 -56 -61 -105
-71 -153 -30 -18 15 -32 33 -32 41 0 8 -9 14 -20 14 -14 0 -31 -17 -52 -50
-17 -28 -33 -49 -35 -47 -2 2 8 29 22 61 28 62 32 90 13 84 -7 -3 -22 -28 -32
-57 -15 -41 -32 -64 -78 -102 -72 -60 -127 -89 -168 -89 -37 0 -46 19 -34 68
7 28 15 37 39 44 38 9 97 65 93 87 -2 9 -15 17 -31 19 -22 3 -37 -6 -68 -37
-27 -27 -57 -45 -94 -55 -29 -9 -56 -16 -59 -16 -3 0 -5 17 -4 38 2 49 -7 62
-40 62 -32 0 -61 -18 -120 -74 l-43 -41 20 48 c11 26 51 84 87 130 89 109 158
215 183 283 24 63 25 76 9 92 -15 15 -17 15 -51 -6z m37 -40 c-10 -39 -51
-118 -97 -187 -44 -65 -127 -170 -127 -161 0 17 67 171 103 235 65 120 139
188 121 113z m1250 -46 c-16 -46 -163 -280 -164 -259 -1 39 146 303 169 303 6
0 3 -20 -5 -44z m-2904 -365 c0 -14 -69 -65 -77 -57 -9 8 47 66 64 66 7 0 13
-4 13 -9z m720 1 c0 -14 -59 -66 -67 -59 -3 4 6 21 22 37 28 30 45 38 45 22z
m1080 -1 c0 -12 -58 -61 -73 -61 -6 0 4 16 23 35 34 35 50 43 50 26z m512 -33
c-17 -18 -35 -28 -39 -24 -4 4 7 21 25 38 44 38 56 27 14 -14z m328 21 c10
-18 6 -27 -28 -67 -52 -63 -118 -110 -133 -95 -17 17 24 94 76 142 50 46 69
51 85 20z m-1141 -136 c-36 -48 -75 -83 -93 -83 -19 0 -19 0 0 21 19 22 93 79
102 79 2 0 -1 -8 -9 -17z"/>
<path d="M2351 1475 c-64 -55 -158 -214 -218 -369 -14 -39 -32 -77 -37 -85 -6
-8 -12 -24 -12 -35 -1 -12 -6 -50 -12 -84 -13 -75 -7 -119 19 -133 27 -14 52
1 140 88 l77 75 -11 -41 c-9 -34 -9 -44 5 -57 21 -22 43 -9 106 62 l50 56 -5
-41 c-6 -40 15 -91 36 -91 20 0 74 56 102 106 30 52 30 52 57 38 17 -8 41 -11
64 -7 l38 6 -6 -45 c-5 -37 -3 -46 11 -52 23 -8 76 25 120 77 l35 41 -6 -46
c-8 -59 1 -95 26 -103 24 -8 52 6 112 56 l47 39 3 -32 c2 -26 8 -34 26 -36 17
-3 44 17 109 80 l86 83 -7 -52 c-13 -100 -30 -131 -144 -247 -116 -120 -170
-207 -179 -288 -4 -35 -1 -47 16 -62 18 -16 24 -17 51 -6 61 25 143 164 213
360 32 89 38 98 93 143 33 27 80 60 107 73 44 23 48 23 54 7 3 -10 14 -30 24
-44 l18 -26 -49 -48 c-72 -71 -91 -135 -40 -135 61 0 112 57 120 135 l5 50
102 51 c56 29 100 54 97 57 -7 7 -116 -39 -166 -70 -21 -13 -42 -23 -48 -23
-10 0 -50 71 -50 89 0 6 14 27 32 47 28 31 36 35 65 31 30 -5 32 -4 23 14 -12
22 -18 23 -57 8 -37 -14 -83 -58 -83 -81 0 -11 -16 -26 -42 -39 -24 -12 -70
-40 -102 -62 -44 -29 -57 -35 -51 -21 21 51 36 157 25 175 -7 10 -34 -10 -112
-86 -90 -88 -103 -97 -106 -77 -2 13 12 54 32 92 42 84 26 96 -25 18 -40 -61
-152 -150 -183 -146 -19 3 -21 8 -18 53 2 28 15 76 29 108 27 60 24 88 -6 49
-15 -21 -20 -22 -45 -11 -23 11 -32 10 -60 -5 -19 -10 -43 -31 -55 -46 -27
-38 -98 -51 -137 -26 -20 14 -24 24 -22 49 2 23 -1 32 -12 32 -10 0 -14 -9
-13 -29 4 -50 -79 -186 -113 -186 -17 0 -18 45 -4 108 6 24 8 47 5 52 -3 5
-40 -29 -81 -75 -42 -47 -80 -85 -86 -85 -19 0 2 73 43 148 21 41 39 78 39 84
0 17 -38 -21 -62 -61 -33 -55 -126 -159 -181 -203 -57 -45 -77 -39 -77 21 0
85 27 148 108 254 101 131 151 206 191 284 34 69 39 108 15 117 -21 8 -19 9
-53 -19z m49 -17 c0 -41 -163 -296 -236 -368 -14 -14 34 109 72 181 65 127
164 240 164 187z m507 -419 c14 -14 -37 -81 -93 -124 -70 -54 -62 14 12 90 45
46 62 53 81 34z m659 -221 c-6 -35 -65 -98 -91 -98 -8 0 -15 3 -15 6 0 23 84
124 103 124 5 0 7 -15 3 -32z m-351 -139 c-44 -114 -96 -209 -142 -260 -48
-53 -63 -51 -63 10 0 53 33 128 91 205 33 43 141 148 147 142 2 -2 -13 -46
-33 -97z"/>
</g>
</svg>
