<?xml version="1.0" standalone="no"?>
<!DOCTYPE svg PUBLIC "-//W3C//DTD SVG 20010904//EN"
 "http://www.w3.org/TR/2001/REC-SVG-20010904/DTD/svg10.dtd">
<svg version="1.0" xmlns="http://www.w3.org/2000/svg"
 width="485.000000pt" height="369.000000pt" viewBox="0 0 485.000000 369.000000"
 preserveAspectRatio="xMidYMid meet">
<metadata>
Created by potrace 1.16, written by Peter Selinger 2001-2019
</metadata>
<g transform="translate(0.000000,369.000000) scale(0.100000,-0.100000)"
fill="#11110f" stroke="none">
<path d="M3095 3534 c-11 -3 -56 -12 -100 -20 -157 -30 -303 -91 -450 -189
-89 -60 -207 -164 -257 -228 -29 -37 -25 -35 37 22 364 331 869 411 1301 207
139 -66 238 -138 365 -265 242 -243 386 -529 455 -903 21 -114 29 -370 15
-496 -51 -467 -264 -882 -588 -1142 -310 -250 -730 -327 -1101 -203 -162 54
-326 153 -459 276 -42 39 -59 51 -45 31 11 -17 62 -69 111 -117 182 -173 387
-281 633 -333 100 -22 369 -25 468 -6 312 60 594 225 798 467 289 342 433 749
434 1220 0 323 -61 583 -201 859 -213 419 -527 684 -939 793 -83 22 -122 26
-277 29 -99 1 -189 1 -200 -2z"/>
<path d="M935 2829 c-296 -38 -470 -174 -506 -397 -9 -55 -9 -89 0 -145 36
-224 201 -356 519 -413 l92 -17 -78 -26 c-42 -14 -109 -47 -149 -74 -140 -93
-236 -224 -360 -491 -127 -274 -170 -334 -265 -376 -27 -11 -48 -23 -48 -25 0
-1 84 -1 187 1 187 3 188 4 208 29 23 27 80 143 209 422 98 212 152 298 239
379 76 71 138 106 237 133 63 18 103 21 262 21 l188 0 0 30 0 30 -262 0 c-219
0 -278 3 -355 19 -114 24 -221 78 -268 136 -122 149 -133 393 -24 546 33 47
113 105 176 129 116 43 191 51 488 51 252 -1 281 -2 293 -18 16 -23 18 -1727
1 -1787 -14 -51 -56 -93 -102 -101 -80 -15 -27 -22 173 -21 115 1 210 2 210 4
0 2 -10 17 -22 33 l-23 31 -3 954 -2 954 -473 -1 c-259 -1 -503 -6 -542 -10z"/>
<path d="M2042 1881 c3 -957 3 -960 24 -988 l21 -28 156 0 c85 0 154 1 153 2
-1 2 -22 13 -47 26 -85 44 -79 -27 -77 992 l3 900 120 8 c71 6 209 5 340 -1
224 -10 286 -22 380 -69 87 -44 157 -130 190 -232 14 -42 16 -76 13 -160 -6
-128 -34 -200 -106 -274 -55 -57 -112 -88 -214 -118 -66 -20 -102 -22 -370
-26 l-298 -5 0 -29 0 -29 185 0 c210 0 260 -8 365 -57 57 -27 93 -54 150 -112
87 -89 129 -159 241 -403 119 -259 180 -378 209 -400 23 -18 37 -19 197 -16
95 2 173 5 173 8 0 4 -17 12 -37 19 -79 29 -131 100 -253 347 -161 327 -222
414 -356 510 -63 45 -191 104 -225 104 -11 0 -19 4 -19 9 0 4 31 11 69 14 239
20 432 130 511 291 28 56 34 80 38 159 13 251 -117 413 -393 489 -77 21 -100
22 -613 26 l-532 3 2 -960z"/>
</g>
</svg>
